<svg id="Capa_1" enable-background="new 0 0 512 512" height="512" viewBox="0 0 512 512" width="512" xmlns="http://www.w3.org/2000/svg"><g><path d="m32.717 128.589c6.905 8.16 11.666 9 18.683 8.115 15.929-2.009 32.472-5.537 48.367-3.426 4.648.617 8.197-.541 13.941-8.833.13-18.938-2.883-37.229-9.057-54.87-6.959-19.885-27.387-31.953-48.011-27.652-.234.049-.467.099-.7.15-20.574 4.532-34.26 23.914-32.455 44.904 1.227 14.283 4.307 28.153 9.232 41.612z" fill="#95d6a4"/><path d="m219.229 62.061c12.074 11.689 24.378 11.853 37.349 11.687.412-.005.824-.01 1.236-.014.412.004.824.009 1.236.014 11.823.151 20.289 1.558 34.02-12.59 1.682-7.308 2.768-14.736 3.252-22.284 1.164-18.155-11.015-34.63-28.862-38.157-.202-.04-.405-.079-.608-.116-17.885-3.326-35.295 7.476-40.93 24.773-3.885 11.926-6.111 24.156-6.693 36.687z" fill="#69af81"/><path d="m454.492.717c-.202-.04-.405-.079-.608-.116-17.885-3.326-35.295 7.476-40.93 24.773-3.619 11.109-5.796 22.481-6.549 34.115 2.143 9.245 5.691 9.871 8.469 9.526 19.452-2.414 31.184-.169 46.958 11.107 2.065 1.476 5.342 1.968 13.726-3.438 4.359-12.251 6.964-24.853 7.794-37.81 1.165-18.155-11.013-34.631-28.86-38.157z" fill="#95d6a4"/><path d="m406.406 59.489c-1.21 18.712 1.276 38.101 7.451 58.166l34.52 6.62c12.249-15.225 21.31-31.089 27.182-47.591-18.721-16.398-44.542-23.035-69.153-17.195z" fill="#78c2a4"/><path d="m52.032 121.906c-7.016.885-13.556 3.224-19.315 6.683 7.2 19.673 18.343 38.466 33.411 56.384l39.8-8.533c5.069-17.841 7.664-35.173 7.78-51.994-20.531-4.28-41.089-5.136-61.676-2.54z" fill="#78c2a4"/><g><path d="m72.69 83.034c-.771 0-1.554-.116-2.329-.361-4.069-1.285-6.326-5.625-5.04-9.694l1.115-3.529c1.285-4.068 5.621-6.331 9.694-5.04 4.069 1.285 6.326 5.625 5.04 9.694l-1.115 3.529c-1.04 3.295-4.085 5.401-7.365 5.401z" fill="#ccf49f"/></g><g><path d="m62.075 120.74c-1.621 0-3.256-.508-4.649-1.559l-2.955-2.23c-3.405-2.571-4.082-7.416-1.512-10.822 2.571-3.404 7.418-4.08 10.822-1.512l2.955 2.23c3.405 2.571 4.082 7.417 1.512 10.822-1.519 2.012-3.832 3.071-6.173 3.071z" fill="#ccf49f"/></g><g><path d="m456.005 40.392c-1.774 0-3.556-.608-5.012-1.85-3.245-2.77-3.631-7.647-.86-10.892l2.075-2.432c2.77-3.245 7.645-3.632 10.892-.86 3.245 2.77 3.631 7.647.86 10.892l-2.075 2.432c-1.528 1.791-3.697 2.71-5.88 2.71z" fill="#ccf49f"/></g><g><path d="m435.682 55.409c-2.67 0-5.267-1.385-6.698-3.864l-1.599-2.769c-2.134-3.695-.867-8.421 2.828-10.554 3.694-2.133 8.42-.868 10.554 2.828l1.599 2.769c2.134 3.695.867 8.421-2.828 10.554-1.216.702-2.545 1.036-3.856 1.036z" fill="#ccf49f"/></g><g><path d="m136.317 491.992c-.743-1.814-1.359-3.716-1.848-5.703-.805-3.276 1.681-6.445 5.054-6.445h236.421c3.373 0 5.86 3.169 5.054 6.445-.488 1.986-1.104 3.889-1.848 5.703-5.019 12.249-17.235 20.008-30.473 20.008h-181.886c-13.238 0-25.453-7.759-30.474-20.008z" fill="#9d6b6b"/><path d="m375.945 479.844h-24.423c3.373 0 5.86 3.169 5.054 6.445-.488 1.986-1.104 3.889-1.848 5.703-5.02 12.249-17.236 20.008-30.474 20.008h24.423c13.238 0 25.453-7.759 30.474-20.008.743-1.814 1.359-3.716 1.848-5.703.805-3.276-1.681-6.445-5.054-6.445z" fill="#8b5e5e"/></g><path d="m168.382 479.844c-35.778-47.013-48.852-82.068-39.221-149.666.857-6.018 5.985-10.506 12.064-10.506h233.02c6.079 0 11.206 4.488 12.064 10.506 9.631 67.598-3.443 102.653-39.221 149.666z" fill="#c6865c"/><path d="m386.308 330.178c-.857-6.018-5.985-10.506-12.064-10.506h-25.868c6.079 0 11.206 4.488 12.064 10.506 9.631 67.598-3.443 102.653-39.221 149.666h25.869c35.777-47.013 48.851-82.067 39.22-149.666z" fill="#c17d4f"/><path d="m128.59 232.053c12.468-13.355 10.285-14.82 9.235-21.919-2.706-18.306-6.992-26.577-2.667-43.333.995-3.856 5.899-7.385-4.511-20.292-24.477-6.682-48.994-8.496-73.551-5.399-24.119 3.042-42.676 23.171-42.813 47.48-.002.276-.002.551 0 .827.137 24.309 18.694 44.439 42.813 47.48 23.87 3.009 47.701 1.385 71.494-4.844z" fill="#69af81"/><path d="m124.406 210.852c1.049 7.099 2.434 14.169 4.183 21.201 16.48-4.315 32.943-10.837 49.387-19.566v-46.969c-15.76-8.366-31.536-14.698-47.329-19.01-7.082 19.912-9.569 41.825-6.241 64.344z" fill="#5ea570"/><path d="m489.278 114.525c-19.44-38.297-66.246-53.583-104.543-34.143-8.723 4.428-18.369 11.356-27.837 19.86-7.741 27.787 1.261 23.243 4.506 27.787 19.419 27.193 18.32 28.982 13.001 64.965-1.149 7.773-7.302 7.085 11.96 41.059 25.805-.652 52.011-6.477 68.771-14.985 38.297-19.44 53.583-66.246 34.142-104.543z" fill="#69af81"/><path d="m356.898 100.243c-32.099 28.831-62.138 75.83-47.126 105.405 10.933 21.538 43.431 29.244 76.593 28.406 1.992-7.692 3.549-15.429 4.698-23.201 6.207-41.997-7.803-81.883-34.165-110.61z" fill="#5ea570"/><path d="m258.971 56.354c-.412-.005-.824-.01-1.236-.014-.412.004-.824.009-1.236.014-12.971.166-25.483 2.159-37.27 5.707-.832 17.916 1.703 36.445 7.596 55.594l34.52 6.62c16.045-19.943 26.627-40.981 31.723-63.117-10.855-2.98-22.274-4.653-34.097-4.804z" fill="#5ea570"/><g><g><path d="m248.581 41.841c-1.774 0-3.556-.608-5.012-1.85-3.245-2.77-3.631-7.647-.86-10.892l2.075-2.432c2.77-3.245 7.645-3.632 10.892-.86 3.245 2.77 3.631 7.647.86 10.892l-2.075 2.432c-1.528 1.791-3.697 2.71-5.88 2.71z" fill="#ccf49f"/></g><g><path d="m269.371 56.794c-2.67 0-5.267-1.385-6.698-3.864l-1.599-2.769c-2.134-3.695-.867-8.421 2.828-10.554 3.694-2.133 8.42-.868 10.554 2.828l1.599 2.769c2.134 3.695.867 8.421-2.828 10.554-1.216.702-2.545 1.036-3.856 1.036z" fill="#ccf49f"/></g></g><path d="m201.175 319.672c-36.223-34.602-53.163-72.117-58.854-110.616-10.313-69.772 43.819-132.836 114.344-133.738.357-.005.713-.009 1.07-.012.357.003.713.007 1.07.012 70.525.902 124.657 63.966 114.343 133.738-5.691 38.499-22.63 76.014-58.854 110.616z" fill="#95d6a4"/><path d="m360.064 219.461c8.575-58.008-24.804-122.92-77.707-139.786-7.557-2.409-20.65-3.759-36.108-3.759-65.344 6.614-113.729 66.845-103.929 133.14 5.691 38.499 22.63 76.014 58.854 110.616h90.15c14.467-2.215 18.296-2.62 23.089-7.35 28.481-28.105 40.78-59.908 45.651-92.861z" fill="#95d6a4"/><path d="m258.804 75.318c-.357-.005-.713-.009-1.07-.012-.357.003-.713.007-1.07.012-3.515.045-6.987.251-10.414.598 65.344 6.613 113.729 66.845 103.929 133.14-5.691 38.499-22.63 76.014-58.854 110.616h22.968c36.224-34.602 53.163-72.117 58.854-110.616 10.314-69.772-43.819-132.836-114.343-133.738z" fill="#78c2a4"/><g><g><path d="m276.245 120.971c-3.076 0-5.984-1.85-7.186-4.884l-1.947-4.917c-1.57-3.967.372-8.457 4.34-10.028 3.964-1.569 8.457.372 10.028 4.34l1.947 4.916c1.57 3.967-.372 8.457-4.34 10.028-.932.37-1.895.545-2.842.545z" fill="#ccf49f"/></g><g><path d="m456.984 169.991c-3.076 0-5.984-1.85-7.186-4.884l-1.947-4.917c-1.57-3.967.372-8.457 4.34-10.028 3.964-1.569 8.456.372 10.028 4.34l1.947 4.917c1.57 3.967-.372 8.457-4.34 10.028-.933.369-1.896.544-2.842.544z" fill="#ccf49f"/></g><g><path d="m397.79 123.429c-3.076 0-5.984-1.85-7.186-4.884l-1.947-4.916c-1.57-3.967.372-8.457 4.34-10.028 3.964-1.568 8.456.372 10.028 4.34l1.947 4.916c1.57 3.967-.372 8.457-4.34 10.028-.932.369-1.895.544-2.842.544z" fill="#ccf49f"/></g><g><path d="m92.04 210.134c-3.076 0-5.985-1.85-7.186-4.885l-1.946-4.916c-1.57-3.968.373-8.457 4.341-10.027 3.967-1.571 8.457.372 10.027 4.341l1.946 4.917c1.57 3.968-.373 8.457-4.341 10.027-.933.368-1.895.543-2.841.543z" fill="#ccf49f"/></g><g><path d="m297.373 248.55c-3.076 0-5.984-1.85-7.185-4.883l-1.947-4.915c-1.571-3.968.371-8.458 4.338-10.028 3.969-1.573 8.457.371 10.028 4.338l1.947 4.915c1.571 3.968-.371 8.458-4.338 10.028-.934.37-1.896.545-2.843.545z" fill="#ccf49f"/></g><g><path d="m178.952 174.906c-3.076 0-5.984-1.85-7.185-4.883l-1.947-4.915c-1.571-3.968.371-8.458 4.338-10.028 3.967-1.572 8.458.371 10.028 4.338l1.947 4.915c1.571 3.968-.371 8.458-4.338 10.028-.933.37-1.896.545-2.843.545z" fill="#ccf49f"/></g><g><path d="m51.161 195.159c-3.076 0-5.984-1.85-7.186-4.884l-1.947-4.917c-1.57-3.967.372-8.457 4.34-10.028 3.963-1.568 8.456.372 10.028 4.34l1.947 4.916c1.57 3.967-.372 8.457-4.34 10.028-.933.37-1.896.545-2.842.545z" fill="#ccf49f"/></g><g><path d="m224.006 147.369c-1.095 0-2.205-.233-3.263-.727-3.867-1.804-5.538-6.401-3.733-10.269l1.812-3.882c1.804-3.867 6.401-5.54 10.269-3.733 3.867 1.804 5.538 6.401 3.733 10.269l-1.812 3.882c-1.311 2.809-4.098 4.46-7.006 4.46z" fill="#ccf49f"/></g><g><path d="m112.796 183.222c-1.095 0-2.205-.233-3.263-.727-3.867-1.804-5.538-6.401-3.733-10.269l1.812-3.882c1.805-3.867 6.401-5.539 10.269-3.733 3.867 1.804 5.538 6.401 3.733 10.269l-1.812 3.882c-1.31 2.809-4.097 4.46-7.006 4.46z" fill="#ccf49f"/></g><g><path d="m239.936 194.642c-1.094 0-2.204-.233-3.261-.726-3.867-1.804-5.54-6.401-3.736-10.268l1.811-3.882c1.804-3.866 6.402-5.54 10.268-3.736 3.867 1.804 5.54 6.401 3.736 10.268l-1.811 3.882c-1.311 2.81-4.097 4.462-7.007 4.462z" fill="#ccf49f"/></g><g><path d="m201.66 231.037c-3.809 0-7.125-2.817-7.647-6.697-.569-4.228 2.397-8.119 6.627-8.687l4.245-.571c4.22-.572 8.118 2.396 8.687 6.627.569 4.228-2.397 8.119-6.627 8.687l-4.245.571c-.349.047-.697.07-1.04.07z" fill="#ccf49f"/></g><g><path d="m411.147 175.191c-3.809 0-7.125-2.817-7.647-6.697-.569-4.228 2.397-8.119 6.627-8.687l4.245-.571c4.222-.576 8.118 2.396 8.687 6.627.569 4.228-2.397 8.119-6.627 8.687l-4.245.571c-.349.047-.697.07-1.04.07z" fill="#ccf49f"/></g><g><path d="m309.42 185.164c-1.094 0-2.204-.233-3.261-.726-3.867-1.803-5.54-6.4-3.736-10.268l1.811-3.883c1.804-3.867 6.402-5.54 10.268-3.736 3.867 1.803 5.54 6.4 3.736 10.268l-1.811 3.883c-1.311 2.81-4.097 4.462-7.007 4.462z" fill="#ccf49f"/></g><g><path d="m441.065 117.996c-1.094 0-2.204-.233-3.261-.726-3.867-1.804-5.54-6.401-3.736-10.268l1.811-3.882c1.804-3.867 6.402-5.54 10.268-3.736 3.867 1.804 5.54 6.401 3.736 10.268l-1.811 3.882c-1.311 2.81-4.097 4.462-7.007 4.462z" fill="#ccf49f"/></g><g><path d="m245.34 279.938c-1.095 0-2.205-.233-3.263-.727-3.867-1.804-5.538-6.401-3.733-10.269l1.812-3.882c1.805-3.867 6.401-5.54 10.269-3.733 3.867 1.804 5.538 6.401 3.733 10.269l-1.812 3.882c-1.311 2.809-4.098 4.46-7.006 4.46z" fill="#ccf49f"/></g></g></g></svg>