<svg id="Capa_1" enable-background="new 0 0 512 512" height="512" viewBox="0 0 512 512" width="512" xmlns="http://www.w3.org/2000/svg"><g><path d="m342.321 262.56-6.931-41.49c-7.918-47.393 31.559-89.267 79.337-84.154l41.826 4.477 6.931 41.49c7.918 47.393-31.559 89.267-79.337 84.154z" fill="#95d6a4"/><path d="m384.146 267.037c7.273.779 14.352.462 21.102-.791.983-1.235 2.055-2.41 3.235-3.497l.004-.004c7.571-6.978 11.195-17.253 9.677-27.437-1.518-10.184 2.107-20.459 9.679-27.438 7.572-6.978 11.196-17.253 9.678-27.438l-2.426-16.28-1.204-1.135-16.395-1.463c-10.256-.915-20.3 3.308-26.82 11.277-6.52 7.969-16.564 12.192-26.82 11.277-10.256-.915-20.299 3.307-26.819 11.276l-.004.004c-.546.667-1.125 1.298-1.718 1.911-1.246 7.619-1.288 15.614.075 23.771l6.931 41.49z" fill="#e490d0"/><g><path d="m181.52 489.758c-34.337-42.665-43.364-91.286-27.082-145.864 1.673-5.608 6.863-9.435 12.716-9.435h178.192c5.853 0 11.043 3.827 12.716 9.435 16.282 54.578 7.255 103.199-27.082 145.864-7.514 9.336-18.877 14.743-30.861 14.743h-87.738c-11.984-.001-23.347-5.407-30.861-14.743z" fill="#4a80aa"/><path d="m358.062 343.894c-1.673-5.608-6.863-9.435-12.716-9.435h-26.498c5.853 0 11.043 3.827 12.716 9.435 16.282 54.578 7.255 103.199-27.082 145.864-7.514 9.336-18.877 14.743-30.861 14.743h26.498c11.984 0 23.348-5.407 30.861-14.743 34.336-42.665 43.364-91.287 27.082-145.864z" fill="#407093"/></g><path d="m303.48 192.861-20.311-50.683c-23.202-57.895 15.225-121.953 77.226-128.738l54.277-5.94 20.311 50.683c23.201 57.895-15.225 121.953-77.226 128.738z" fill="#95d6a4"/><path d="m357.757 186.921c9.438-1.033 18.326-3.4 26.538-6.863.904-1.839 1.937-3.626 3.13-5.332l.004-.006c7.662-10.951 9.403-24.985 4.651-37.477-4.753-12.492-3.011-26.527 4.652-37.478 7.663-10.951 9.405-24.986 4.652-37.478l-7.598-19.969-1.842-1.105-21.195 2.698c-13.259 1.688-24.821 9.832-30.876 21.747-6.054 11.916-17.617 20.06-30.875 21.748-13.258 1.688-24.82 9.831-30.875 21.746l-.003.007c-.507.997-1.066 1.958-1.647 2.901.536 10.007 2.703 20.155 6.696 30.121l20.311 50.683z" fill="#e490d0"/><path d="m170.179 262.56 6.931-41.49c7.918-47.393-31.559-89.267-79.337-84.154l-41.826 4.477-6.931 41.49c-7.918 47.393 31.559 89.267 79.337 84.154z" fill="#95d6a4"/><path d="m128.353 267.037c-7.273.779-14.352.462-21.102-.791-.983-1.235-2.055-2.41-3.235-3.497l-.004-.004c-7.571-6.978-11.195-17.253-9.677-27.437 1.518-10.184-2.107-20.459-9.679-27.438-7.572-6.978-11.196-17.253-9.678-27.438l2.426-16.28 1.204-1.135 16.395-1.463c10.256-.915 20.3 3.308 26.82 11.277 6.52 7.969 16.564 12.192 26.82 11.277 10.256-.915 20.299 3.307 26.819 11.276l.004.004c.546.667 1.125 1.298 1.718 1.911 1.246 7.619 1.288 15.614-.075 23.771l-6.931 41.49z" fill="#e490d0"/><path d="m209.02 192.861 20.311-50.683c23.201-57.895-15.225-121.953-77.226-128.738l-54.277-5.94-20.311 50.683c-23.201 57.895 15.225 121.953 77.226 128.738z" fill="#95d6a4"/><path d="m154.743 186.921c-9.438-1.033-18.326-3.4-26.537-6.863-.904-1.839-1.937-3.626-3.13-5.332l-.004-.006c-7.662-10.951-9.403-24.985-4.651-37.477 4.753-12.492 3.011-26.527-4.652-37.478-7.662-10.951-9.405-24.986-4.652-37.478l7.598-19.969 1.842-1.105 21.195 2.698c13.259 1.688 24.821 9.832 30.876 21.747 6.054 11.916 17.617 20.06 30.875 21.748 13.258 1.688 24.82 9.831 30.875 21.746l.003.007c.507.997 1.066 1.958 1.647 2.901-.536 10.007-2.703 20.155-6.696 30.121l-20.311 50.683z" fill="#e490d0"/><g><path d="m464.876 196.001c-4.103-.466-7.84 2.46-8.324 6.574-2.479 21.103-15.016 38.733-32.267 48.668 1.673-5.433 2.162-11.242 1.298-17.04-1.151-7.735 1.594-15.519 7.344-20.818 9.408-8.67 13.899-21.402 12.014-34.058l-2.426-16.28c-.248-1.665-1.049-3.198-2.274-4.353l-1.205-1.136c-1.224-1.154-2.801-1.862-4.477-2.013l-6.185-.552c2.052-2.701 3.98-5.522 5.782-8.455l15.937 1.706 4.377 26.199c.612 3.667 3.789 6.265 7.389 6.265.41 0 .826-.033 1.245-.104 4.085-.683 6.844-4.548 6.161-8.634l-5.315-31.814c-.555-3.319-3.253-5.863-6.6-6.221l-15.848-1.696c10.223-24.439 10.507-51.737.444-76.848l-20.313-50.681c-1.252-3.125-4.435-5.033-7.777-4.665l-54.276 5.94c-31.904 3.491-59.671 21.278-76.181 48.801-16.509 27.521-19.131 60.392-7.192 90.183l19.599 48.904c-12.666 25.426-24.009 50.903-32.059 74.118v-66.013c0-4.143-3.357-7.5-7.5-7.5s-7.5 3.357-7.5 7.5v65.652c-7.99-23.29-19.214-48.944-31.721-74.582l19.267-48.079c11.938-29.79 9.317-62.661-7.191-90.183-16.51-27.522-44.276-45.31-76.181-48.801l-54.277-5.94c-3.344-.368-6.524 1.542-7.777 4.665l-13.122 32.742c-1.541 3.845.327 8.211 4.172 9.752 3.841 1.538 8.21-.326 9.752-4.172l11.004-27.457 48.617 5.319c27.2 2.978 50.873 18.142 64.948 41.606 4.992 8.322 8.487 17.219 10.474 26.368-6.452-4.736-14.074-7.862-22.263-8.904-10.805-1.377-20.202-7.995-25.136-17.706-7.188-14.146-20.876-23.786-36.615-25.79l-15.448-1.967c-3.081-4.852-5.073-7.925-5.677-8.854-2.26-3.473-6.904-4.458-10.376-2.198-3.473 2.258-4.457 6.903-2.198 10.376.062.095 1.173 1.807 3.146 4.904-.163.298-.319.6-.441.921l-7.598 19.97c-5.643 14.829-3.58 31.444 5.517 44.444 6.245 8.925 7.66 20.331 3.787 30.512-3.305 8.689-3.946 17.987-2.097 26.815-6.898-5.438-13.003-11.947-18.051-19.385-14.331-21.117-18.688-47.22-11.954-71.614 1.103-3.993-1.241-8.123-5.233-9.226-3.999-1.109-8.124 1.242-9.226 5.233-6.062 21.959-4.467 45.083 4.176 65.839l-15.875 1.699c-3.347.357-6.045 2.901-6.6 6.222l-6.931 41.488c-4.164 24.924 3.39 49.763 20.723 68.148 15.592 16.539 36.661 25.168 58.082 25.167 2.891 0 5.806-.154 8.727-.468 44.142-4.791 41.771-4.322 43.269-4.792 16.453 21.854 26.131 41.261 28.51 57.256h-33.776c-9.121 0-17.306 6.083-19.902 14.791-16.954 56.829-7.391 108.208 28.426 152.71 8.97 11.148 22.348 17.541 36.703 17.541h87.737c14.355 0 27.733-6.394 36.703-17.54 2.278-2.83 4.519-5.783 6.657-8.778 2.408-3.371 1.627-8.055-1.743-10.462-3.369-2.407-8.055-1.628-10.462 1.743-1.974 2.762-4.038 5.484-6.137 8.092-6.108 7.592-15.226 11.945-25.017 11.945h-87.737c-9.79 0-18.909-4.354-25.019-11.945-16.302-20.255-26.729-42.168-30.992-65.131-4.273-23.017-2.506-47.876 5.255-73.887.716-2.401 2.989-4.079 5.528-4.079h178.192c2.539 0 4.812 1.678 5.528 4.08 11.455 38.397 9.743 74.104-5.09 106.128-1.74 3.759-.105 8.217 3.653 9.958 3.758 1.74 8.216.104 9.958-3.653 16.416-35.442 18.385-74.713 5.854-116.721-2.598-8.709-10.782-14.792-19.903-14.792h-33.776c2.378-15.995 12.056-35.402 28.51-57.256 1.497.469-.8.009 43.268 4.792 2.866.308 5.708.457 8.531.457 39.732-.004 74.787-29.911 79.57-70.626.483-4.113-2.459-7.84-6.573-8.324zm-103.665-175.106 48.617-5.319 18.193 45.397c10.179 25.398 7.943 53.423-6.132 76.887-5.541 9.237-12.574 17.18-20.718 23.607 1.869-8.852 1.234-18.178-2.082-26.892-3.873-10.181-2.457-21.587 3.787-30.512 9.098-13 11.16-29.615 5.518-44.444l-6.731-17.693c2.504-3.821 3.932-5.954 4.002-6.059 2.308-3.44 1.39-8.1-2.051-10.407-3.438-2.308-8.099-1.388-10.406 2.05-.514.766-2.016 3.013-4.328 6.53l-19.077 2.429c-15.739 2.004-29.428 11.645-36.615 25.79-4.934 9.711-14.331 16.329-25.137 17.705-8.189 1.042-15.811 4.168-22.262 8.903 1.988-9.148 5.482-18.045 10.474-26.366 14.075-23.465 37.747-38.629 64.948-41.606zm-43.359 162.848c4.944-9.478 10.228-19.297 15.859-29.455 21.767-39.265 43.973-75.021 57.848-96.736l2.816 7.401c3.873 10.18 2.458 21.586-3.788 30.511-9.096 13.001-11.158 29.616-5.516 44.445 3.873 10.18 2.457 21.586-3.792 30.518-.817 1.168-1.59 2.413-2.324 3.707-6.968 2.687-14.351 4.493-22.014 5.332zm-27.722-44.355c-3.333-8.315-5.325-16.912-6.017-25.538.465-.839.672-1.26.726-1.363 4.942-9.677 14.323-16.271 25.105-17.644 15.74-2.004 29.428-11.646 36.615-25.79 4.934-9.711 14.331-16.329 25.137-17.704l6.504-.828c-17.472 27.314-47.114 75.279-73.348 125.605zm-149.327-88.038c10.806 1.375 20.203 7.993 25.137 17.704 7.188 14.146 20.876 23.786 36.615 25.789 12.252 1.561 19.979 8.461 25.831 19.005-.691 8.626-2.685 17.224-6.017 25.54l-14.306 35.699c-25.105-49.242-53.289-96.339-70.514-124.151zm-9.524 119.161c-.021-.03-.042-.062-.062-.092-6.244-8.924-7.66-20.329-3.787-30.51 5.643-14.829 3.58-31.444-5.517-44.445-6.245-8.925-7.66-20.331-3.787-30.511l3.962-10.414c13.6 21.885 35.914 58.777 57.783 99.258 5.605 10.376 10.864 20.396 15.777 30.054l-40.09-4.386c-7.641-.836-15.042-2.67-22.047-5.394-.706-1.24-1.449-2.436-2.232-3.56zm-58.023 68.994c-14.087-14.942-20.226-35.13-16.842-55.387l5.992-35.873 15.939-1.707c.806 1.311 1.636 2.61 2.504 3.89 1.056 1.557 2.153 3.078 3.286 4.565l-5.361.479c-2.202.193-4.302 1.136-5.913 2.653-1.607 1.516-2.672 3.553-2.998 5.739l-2.304 15.462c-1.886 12.655 2.605 25.387 12.013 34.058 5.751 5.3 8.496 13.082 7.344 20.817-.871 5.845-.365 11.701 1.34 17.172-5.465-3.147-10.523-7.118-15-11.868zm54.299 20.075c-5.556.594-11.06.461-16.421-.313-.65-.7-1.315-1.367-1.993-1.993-.015-.015-.03-.029-.046-.043-5.75-5.3-8.495-13.082-7.343-20.817 1.886-12.655-2.605-25.388-12.014-34.058-5.75-5.3-8.495-13.082-7.343-20.817l1.711-11.482c12.218-1.07 11.339-1.054 12.901-1.105 16.308 14.661 36.383 23.178 56.919 25.425l15.399 1.685c1.589 7.778 1.726 15.756.387 23.773l-3.176 19.013c-25.321-28.699-51.197-50.062-53.308-51.79-3.204-2.622-7.929-2.153-10.553 1.053-2.624 3.204-2.154 7.929 1.05 10.554.248.203 25.102 20.646 49.569 47.915 2.84 3.165 5.554 6.289 8.151 9.374zm51.661-5.598 5.292-31.676c1.377-8.244 1.481-16.466.331-24.547l18.771 2.054c28.41 58.103 42.959 101.515 42.478 127.145h-30.042c-2.84-23.83-18.518-49.876-36.83-72.976zm87.203 72.976c-.432-26.123 14.386-69.564 43.26-127.232l17.978-1.967c-1.149 8.077-1.044 16.297.333 24.548l5.292 31.675c-18.312 23.101-33.99 49.146-36.829 72.977h-30.034zm118.525-67.378-33.891-3.628c2.597-3.085 5.312-6.209 8.151-9.374 24.467-27.27 49.32-47.712 49.568-47.915 3.204-2.625 3.674-7.35 1.05-10.554-2.624-3.206-7.349-3.675-10.553-1.053-2.111 1.729-27.986 23.091-53.307 51.79l-3.176-19.011c-1.34-8.024-1.193-16 .396-23.775l15.389-1.684c21.64-2.368 41.372-11.32 56.983-25.419 1.672.058.311.005 12.838 1.099l1.711 11.482c1.152 7.735-1.593 15.518-7.344 20.817-9.407 8.671-13.898 21.402-12.013 34.057 1.086 7.294-1.203 15.019-7.349 20.823-.684.63-1.354 1.302-2.01 2.006-5.334.796-10.847.938-16.443.339z"/><path d="m359.404 146.794c.472 3.797 3.703 6.576 7.433 6.576.309 0 .621-.02.935-.059 4.111-.511 7.029-4.257 6.518-8.367l-2.331-18.753c-.511-4.111-4.266-7.031-8.367-6.518-4.111.511-7.029 4.257-6.518 8.367z"/><path d="m317.996 103.041-15.175 11.263c-3.326 2.469-4.021 7.166-1.553 10.492 1.472 1.983 3.735 3.03 6.028 3.03 1.554 0 3.121-.48 4.464-1.478l15.175-11.263c3.326-2.469 4.021-7.166 1.553-10.492-2.469-3.326-7.168-4.02-10.492-1.552z"/><path d="m148.909 119.674c-4.111-.508-7.856 2.407-8.367 6.518l-2.33 18.753c-.511 4.11 2.407 7.856 6.518 8.367.314.039.626.059.935.059 3.729 0 6.961-2.78 7.433-6.576l2.33-18.753c.509-4.111-2.409-7.857-6.519-8.368z"/><path d="m211.232 124.796c2.469-3.326 1.773-8.023-1.553-10.492l-15.175-11.263c-3.327-2.469-8.023-1.772-10.492 1.553-2.469 3.326-1.773 8.023 1.553 10.492l15.175 11.263c1.344.997 2.91 1.478 4.464 1.478 2.293-.001 4.556-1.048 6.028-3.031z"/></g></g></svg>